<?xml version="1.0" encoding="UTF-8"?>
<svg width="35px" height="34px" viewBox="0 0 35 34" version="1.1" xmlns="http://www.w3.org/2000/svg" xmlns:xlink="http://www.w3.org/1999/xlink">
    <!-- Generator: Sketch 46.1 (44463) - http://www.bohemiancoding.com/sketch -->
    <title>body weight</title>
    <desc>Created with Sketch.</desc>
    <defs></defs>
    <g id="SPAJ-BAHASA---&gt;-ALLOWED-TO-EDIT" stroke="none" stroke-width="1" fill="none" fill-rule="evenodd">
        <g id="4_MI_health-qns-if-No" transform="translate(-438.000000, -409.000000)">
            <g id="Group-18" transform="translate(64.000000, 353.000000)">
                <g id="body-weight" transform="translate(373.000000, 55.000000)">
                    <rect id="Rectangle-3" x="0" y="-1.05882353" width="37.0285714" height="38.1176471"></rect>
                    <g stroke-width="1" fill-rule="evenodd" transform="translate(0.000000, 1.058824)" id="Group" fill="#9B9B9B">
                        <g transform="translate(1.028571, 0.000000)" fill-rule="nonzero">
                            <path d="M30.6550233,-7.49400542e-16 L3.72444209,-7.49400542e-16 C1.64734939,-7.49400542e-16 0,1.64299043 0,3.71458706 L0,30.1453027 C0,32.2168993 1.64734939,33.8598898 3.72444209,33.8598898 L30.6550233,33.8598898 C32.732116,33.8598898 34.3794654,32.2168993 34.3794654,30.1453027 L34.3794654,3.71458706 C34.3794654,1.64299043 32.732116,-7.49400542e-16 30.6550233,-7.49400542e-16 Z M25.4981035,6.71483046 C25.4981035,11.2151956 22.060157,14.9297826 17.6910999,15.3583888 L18.8370821,8.00064906 C18.908706,7.64347722 18.6222104,7.21487102 18.264091,7.21487102 C17.9059716,7.14343666 17.4762283,7.42917412 17.4762283,7.78634596 L16.2586222,15.4298232 C11.7463174,15.001217 8.16512304,11.2866299 8.16512304,6.71483046 C8.16512304,4.85753693 8.73811413,3.14311213 9.81247243,1.7144248 L23.922378,1.7144248 C24.9251124,3.14311213 25.4981035,4.85753693 25.4981035,6.71483046 Z M3.72444209,1.64299043 L8.09349915,1.64299043 C7.23401252,3.14311213 6.73264531,4.85753693 6.73264531,6.64339609 C6.73264531,12.2152767 11.2449502,16.7156418 16.8316133,16.7156418 L16.8316133,16.7156418 C16.8316133,16.7156418 16.8316133,16.7156418 16.8316133,16.7156418 C16.8316133,16.7156418 16.8316133,16.7156418 16.8316133,16.7156418 C22.4182764,16.7156418 26.9305813,12.2152767 26.9305813,6.64339609 C26.9305813,4.85753693 26.4292141,3.14311213 25.5697274,1.64299043 L30.6550233,1.64299043 C31.9442533,1.64299043 32.9469877,2.64307156 32.9469877,3.92889016 L32.9469877,24.2162503 L1.43247773,24.2162503 L1.43247773,3.92889016 C1.43247773,2.64307156 2.43521213,1.64299043 3.72444209,1.64299043 Z M30.6550233,32.6455055 L3.72444209,32.6455055 C2.43521213,32.6455055 1.43247773,31.6454244 1.43247773,30.3596058 L1.43247773,25.6449376 L32.9469877,25.6449376 L32.9469877,30.3596058 C32.9469877,31.6454244 31.9442533,32.6455055 30.6550233,32.6455055 Z" id="Shape"></path>
                            <path d="M16.8316133,5.35757749 C16.8316133,5.35757749 16.8316133,5.35757749 16.8316133,5.35757749 C17.2613566,5.35757749 17.5478521,5.00040566 17.5478521,4.64323383 L17.5478521,3.50028396 C17.5478521,3.07167776 17.2613566,2.7859403 16.8316133,2.7859403 C16.8316133,2.7859403 16.8316133,2.7859403 16.8316133,2.7859403 C16.40187,2.7859403 16.1153744,3.14311213 16.1153744,3.50028396 L16.1153744,4.64323383 C16.1153744,5.00040566 16.4734939,5.35757749 16.8316133,5.35757749 Z" id="Shape"></path>
                            <path d="M12.1760607,6.85769919 C12.4625562,7.14343666 12.8922995,7.14343666 13.1787951,6.85769919 C13.4652906,6.57196172 13.4652906,6.14335553 13.1787951,5.85761806 L12.3909323,5.07184003 C12.1044368,4.78610256 11.6746935,4.78610256 11.3881979,5.07184003 C11.1017024,5.35757749 11.1017024,5.78618369 11.3881979,6.07192116 L12.1760607,6.85769919 Z" id="Shape"></path>
                            <path d="M21.4871659,6.85769919 L22.2750286,6.07192116 C22.5615242,5.78618369 22.5615242,5.35757749 22.2750286,5.07184003 C21.9885331,4.78610256 21.5587898,4.78610256 21.2722942,5.07184003 L20.4844315,5.85761806 C20.1979359,6.14335553 20.1979359,6.57196172 20.4844315,6.85769919 C20.770927,7.14343666 21.2006704,7.14343666 21.4871659,6.85769919 Z" id="Shape"></path>
                            <path d="M13.9666578,5.35757749 C14.1099056,5.71474933 14.468025,5.85761806 14.8977684,5.71474933 C15.2558878,5.57188059 15.4707594,5.14327439 15.2558878,4.78610256 L14.8261445,3.78602143 C14.6828967,3.4288496 14.2531534,3.2145465 13.8950339,3.4288496 C13.5369145,3.57171833 13.3220429,4.00032453 13.5369145,4.35749636 L13.9666578,5.35757749 Z" id="Shape"></path>
                            <path d="M21.6304137,8.50068962 C21.7736614,8.85786146 22.2034048,9.07216455 22.5615242,8.85786146 L23.5642586,8.42925526 C23.922378,8.28638652 24.1372497,7.85778032 23.922378,7.50060849 C23.7791303,7.14343666 23.3493869,6.92913356 22.9912675,7.14343666 L21.9885331,7.57204286 C21.6304137,7.71491159 21.4871659,8.14351779 21.6304137,8.50068962 Z" id="Shape"></path>
                            <path d="M9.74084854,7.57204286 C9.59760077,7.92921469 9.74084854,8.35782089 10.098968,8.50068962 L11.1017024,8.92929582 C11.4598218,9.07216455 11.8895651,8.92929582 12.0328129,8.57212399 C12.1760607,8.21495216 12.0328129,7.78634596 11.6746935,7.64347722 L10.6719591,7.14343666 C10.3138396,7.00056792 9.88409631,7.14343666 9.74084854,7.57204286 Z" id="Shape"></path>
                            <path d="M18.8370821,5.71474933 C19.1952015,5.85761806 19.6249449,5.71474933 19.7681926,5.35757749 L20.1979359,4.28606199 C20.3411837,3.92889016 20.1979359,3.50028396 19.8398165,3.35741523 C19.4816971,3.2145465 19.0519538,3.35741523 18.908706,3.71458706 L18.4789627,4.71466819 C18.264091,5.14327439 18.4789627,5.57188059 18.8370821,5.71474933 Z" id="Shape"></path>
                        </g>
                    </g>
                </g>
            </g>
        </g>
    </g>
</svg>