<?xml version="1.0" encoding="UTF-8"?>
<svg width="25px" height="36px" viewBox="0 0 25 36" version="1.1" xmlns="http://www.w3.org/2000/svg" xmlns:xlink="http://www.w3.org/1999/xlink">
    <!-- Generator: Sketch 46.1 (44463) - http://www.bohemiancoding.com/sketch -->
    <title>body height</title>
    <desc>Created with Sketch.</desc>
    <defs></defs>
    <g id="SPAJ-BAHASA---&gt;-ALLOWED-TO-EDIT" stroke="none" stroke-width="1" fill="none" fill-rule="evenodd">
        <g id="4_MI_health-qns-if-No" transform="translate(-143.000000, -408.000000)">
            <g id="Group-18" transform="translate(64.000000, 353.000000)">
                <g id="body-height" transform="translate(74.000000, 55.000000)">
                    <g stroke-width="1" fill-rule="evenodd" transform="translate(5.000000, 0.000000)" id="Man" fill="#9B9B9B">
                        <g fill-rule="nonzero">
                            <g id="height-ruler">
                                <path d="M1.1456,35.8444 C0.704,35.8444 0.3456,35.486 0.3456,35.0444 L0.3456,0.9316 C0.3456,0.49 0.704,0.1316 1.1456,0.1316 C1.5872,0.1316 1.9456,0.49 1.9456,0.9316 L1.9456,35.0444 C1.9456,35.4864 1.5876,35.8444 1.1456,35.8444 Z" id="Shape"></path>
                                <path d="M5.9884,3.45360002 L1.36,3.45360002 C0.9184,3.45360002 0.56,3.09520002 0.56,2.65360001 C0.56,2.21200001 0.9184,1.8536 1.36,1.8536 L5.988,1.8536 C6.43,1.8536 6.788,2.21200001 6.788,2.65360001 C6.788,3.09520002 6.4304,3.45360002 5.9884,3.45360002 Z" id="Shape"></path>
                                <path d="M5.9884,9.15640002 L1.36,9.15640002 C0.9184,9.15640002 0.56,8.79800002 0.56,8.35640001 C0.56,7.91480001 0.9184,7.5564 1.36,7.5564 L5.988,7.5564 C6.43,7.5564 6.788,7.91480001 6.788,8.35640001 C6.788,8.79800002 6.4304,9.15640002 5.9884,9.15640002 Z" id="Shape"></path>
                                <path d="M5.9884,14.6452 L1.36,14.6452 C0.9184,14.6452 0.56,14.2868 0.56,13.8452 C0.56,13.4036 0.9184,13.0452 1.36,13.0452 L5.988,13.0452 C6.43,13.0452 6.788,13.4036 6.788,13.8452 C6.788,14.2868 6.4304,14.6452 5.9884,14.6452 Z" id="Shape"></path>
                                <path d="M6.2032,20.7792 L1.6836,20.7792 C1.2416,20.7792 0.8836,20.4208 0.8836,19.9792 C0.8836,19.5376 1.2416,19.1792 1.6836,19.1792 L6.2032,19.1792 C6.6448,19.1792 7.0032,19.5376 7.0032,19.9792 C7.0032,20.4208 6.6448,20.7792 6.2032,20.7792 Z" id="Shape"></path>
                                <path d="M5.0196,27.2356 L1.6836,27.2356 C1.2416,27.2356 0.8836,26.8772 0.8836,26.4356 C0.8836,25.994 1.2416,25.6356 1.6836,25.6356 L5.0196,25.6356 C5.4612,25.6356 5.8196,25.994 5.8196,26.4356 C5.8196,26.8772 5.4612,27.2356 5.0196,27.2356 Z" id="Shape"></path>
                                <path d="M6.3112,32.7236 L1.6836,32.7236 C1.2416,32.7236 0.8836,32.3652 0.8836,31.9236 C0.8836,31.482 1.2416,31.1236 1.6836,31.1236 L6.3112,31.1236 C6.7528,31.1236 7.1112,31.482 7.1112,31.9236 C7.1112,32.3652 6.7532,32.7236 6.3112,32.7236 Z" id="Shape"></path>
                            </g>
                        </g>
                    </g>
                    <path d="M19.8955759,10.8036709 L26.2555417,10.8036709 C27.8539254,10.805548 29.1492033,12.1008259 29.1510805,13.6992097 L29.1510805,21.231017 C29.1547419,21.7753593 28.8872718,22.2858305 28.4376268,22.5926551 C27.9879818,22.8994797 27.4151297,22.9624199 26.9095928,22.7605428 L26.2725743,34.1928112 C26.2383708,34.7317987 25.79069,35.1511264 25.2506194,35.1500423 L20.8936851,35.1500423 C20.3536146,35.1511264 19.9059337,34.7317987 19.8717303,34.1928112 L19.2415248,22.7605428 C18.7359879,22.9624199 18.1631357,22.8994797 17.7134907,22.5926551 C17.2638457,22.2858305 16.9963756,21.7753593 17.0000371,21.231017 L17.0000371,13.6992097 C17.0019143,12.1008259 18.2971922,10.805548 19.8955759,10.8036709 Z M23.511399,2.00000162 C21.5345269,2.00188257 19.933304,3.60564638 19.9345577,5.58251902 C19.9358114,7.55939165 21.539067,9.16112329 23.5159399,9.16049691 C25.4928129,9.15987052 27.0950532,7.5571232 27.0950541,5.58025017 C27.0950545,4.6301187 26.7173832,3.71895185 26.0452194,3.047427 C25.3730556,2.37590214 24.46153,1.9990976 23.511399,2.00000162 Z" id="Shape" stroke="#9B9B9B" stroke-width="1.6" fill="#FFFFFF" fill-rule="nonzero"></path>
                </g>
            </g>
        </g>
    </g>
</svg>