<?xml version="1.0" encoding="UTF-8"?>
<svg width="48px" height="38px" viewBox="0 0 48 38" version="1.1" xmlns="http://www.w3.org/2000/svg" xmlns:xlink="http://www.w3.org/1999/xlink">
    <!-- Generator: Sketch 46.1 (44463) - http://www.bohemiancoding.com/sketch -->
    <title>Cave</title>
    <desc>Created with Sketch.</desc>
    <defs>
        <polygon id="path-1" points="0 0.0685409158 0 35.9312747 46.1557944 35.9312747 46.1557944 0.0685409158"></polygon>
    </defs>
    <g id="SPAJ-BAHASA---&gt;-ALLOWED-TO-EDIT" stroke="none" stroke-width="1" fill="none" fill-rule="evenodd">
        <g id="4_Risk-Hobby-If-Yes" transform="translate(-532.000000, -614.000000)">
            <g id="potholing" transform="translate(388.000000, 567.000000)">
                <g id="Cave" transform="translate(144.000000, 42.000000)">
                    <g>
                        <rect id="Rectangle-3" x="0" y="0" width="48" height="48"></rect>
                        <g transform="translate(0.666667, 5.333333)">
                            <g id="Group-3" transform="translate(0.630631, 0.033193)">
                                <mask id="mask-2" fill="white">
                                    <use xlink:href="#path-1"></use>
                                </mask>
                                <g id="Clip-2"></g>
                                <path d="M32.444693,13.5400834 C32.6769703,13.0134546 32.9995413,12.514543 33.3509017,12.0602496 C34.4043284,10.6966932 35.8601511,10.6662718 36.8978746,12.0413207 C37.4664633,12.7944202 37.9794363,13.6299957 38.3425741,14.505457 C39.7768048,17.9660644 41.1704687,21.4449247 42.5235659,24.9400097 C43.7157048,28.0206872 44.8332531,31.131786 45.9848252,34.2293643 C46.0083801,34.2942634 46.0365151,34.3564583 46.0594157,34.4213574 C46.2903844,35.0777844 46.0986738,35.6341586 45.5693432,35.8477847 C45.0288895,36.066143 44.5198423,35.8004625 44.2731703,35.1467396 C44.0203087,34.4770945 30.8380209,36.8822278 24.5570128,34.810405 C22.9735206,34.288082 23.0513708,31.9074472 22.3861074,30.85624 C22.3288387,30.7657475 18.0979851,26.4822834 16.2510174,27.3358668 C10.9990172,29.7630994 10.8393182,34.7793918 10.8239765,34.810405 C10.5275775,35.4073412 1.05650196,36.0789876 0.54091173,35.8295319 C0.0351360347,35.5854843 -0.143488499,35.0196456 0.122812546,34.4200053 C0.879840332,32.7157288 1.67743486,31.0303813 2.40436474,29.3132602 C5.41938984,22.193292 8.39908262,15.056423 11.4271938,7.94253915 C12.1835672,6.16525123 13.0348146,4.42717317 13.9168141,2.71208019 C14.2622857,2.04078049 14.7458151,1.40869065 15.2829973,0.886794006 C16.3998914,-0.198237225 17.6751266,-0.213785959 18.7566884,0.897610517 C19.5052102,1.66558278 20.2033508,2.53833999 20.7261384,3.48208054 C22.4462992,6.58844721 24.0722404,9.74957247 25.7413657,12.8863606 C26.9524793,15.1639121 28.1740617,17.4367314 29.3923726,19.7102268 C29.4617287,19.8400249 29.546788,19.9623867 29.6325016,20.1002972 C30.5818942,17.8748001 31.4939917,15.6979773 32.444693,13.5400834 Z" id="Fill-1" fill="#FFFFFF" mask="url(#mask-2)"></path>
                            </g>
                            <path d="M23.6987575,36.2620423 L25.4665832,36.2620423 L23.4460418,34.0979512 C23.0511223,32.4776119 22.2019922,30.9259875 20.9506754,29.9683647 C19.2290931,28.6519899 17.1607929,28.6309456 15.4407116,29.9390134 C14.3675369,30.7558636 13.6385786,31.8739792 13.166782,33.2064141 C12.821288,34.1815746 12.6334262,35.1891241 12.6421593,36.2620423 L11.011082,36.2620423 C10.9836013,34.9086264 11.2302733,33.6410666 11.6954823,32.4154207 C12.3124894,30.7888879 13.2658078,29.4239794 14.6692863,28.4268324 C16.9187777,26.830045 19.6236635,26.8557342 21.8751178,28.4626621 C24.2750987,30.177079 25.5437909,33.4511016 25.4665832,36.2620423 L23.4460418,34.0979512 C23.6223156,34.8211956 23.7080963,35.5581302 23.6987575,36.2620423 Z M23.613694,36.2620423 L23.613694,36.2620423 L20.9506754,33.2064141 L23.613694,36.2620423 Z" id="Combined-Shape" fill="#FFFFFF"></path>
                            <path d="M0.717046476,34.5883092 C1.86081398,34.2364844 2.56557395,34.0860169 2.83132636,34.1369067 C2.98825842,34.1669581 2.56620492,34.9006595 2.76203499,34.9771381 C2.85256375,35.0124929 2.93457954,35.0291225 3.00808237,35.027027 L10.5768172,35.027027 C10.7426539,35.0001987 10.8657859,34.9519817 10.9462131,34.882376 C11.1192556,34.7326166 11.1625006,33.9798644 11.3757543,33.9798644 C11.7376832,33.9798644 12.1827447,34.3289186 12.7109387,35.027027 C12.6705176,35.6922184 12.650307,36.1259111 12.650307,36.3281052 C12.650307,36.6313964 12.469563,36.7612417 12.3494103,36.8353847 C12.2693084,36.8848133 12.041961,36.9179016 11.6673681,36.9346497 L1.36942388,36.9346497 C0.57988512,36.9479415 0.203444193,36.7309681 0.240101101,36.2837296 C0.201701796,35.9843023 0.360683588,35.4191622 0.717046476,34.5883092 Z" id="Rectangle-2" fill="#FFFFFF"></path>
                            <path d="M24.1087315,34.5883092 C25.252499,34.2364844 25.9572589,34.0860169 26.2230113,34.1369067 C26.3799434,34.1669581 25.9578899,34.9006595 26.15372,34.9771381 C26.2442487,35.0124929 26.3262645,35.0291225 26.3997673,35.027027 L38.2204872,35.027027 L45.1184946,35.0478714 C45.2846554,35.0339751 45.384951,35.0025272 45.4193815,34.9535275 C45.5071797,34.6980376 45.638402,34.4517327 45.8130483,34.2146128 L47.2244451,35.027027 C47.210913,35.6922184 47.204147,36.1259111 47.204147,36.3281052 C47.204147,36.6313964 47.023403,36.7612417 46.9032502,36.8353847 C46.8231484,36.8848133 46.595801,36.9179016 46.2212081,36.9346497 L38.2949435,36.9346497 L24.7611089,36.9346497 C23.9715701,36.9479415 23.5951292,36.7309681 23.6317861,36.2837296 C23.5933868,35.9843023 23.7523686,35.4191622 24.1087315,34.5883092 Z" id="Rectangle-2" fill="#FFFFFF" transform="translate(35.425314, 35.531243) scale(-1, 1) translate(-35.425314, -35.531243) "></path>
                        </g>
                    </g>
                </g>
            </g>
        </g>
    </g>
</svg>