<?xml version="1.0" encoding="UTF-8"?>
<svg width="43px" height="37px" viewBox="0 0 43 37" version="1.1" xmlns="http://www.w3.org/2000/svg" xmlns:xlink="http://www.w3.org/1999/xlink">
    <!-- Generator: Sketch 46.1 (44463) - http://www.bohemiancoding.com/sketch -->
    <title>Diving</title>
    <desc>Created with Sketch.</desc>
    <defs></defs>
    <g id="SPAJ-BAHASA---&gt;-ALLOWED-TO-EDIT" stroke="none" stroke-width="1" fill="none" fill-rule="evenodd">
        <g id="4_Risk-Hobby-If-Yes" transform="translate(-202.000000, -614.000000)">
            <g id="diving" transform="translate(67.000000, 567.000000)">
                <g id="Group" transform="translate(56.000000, 42.000000)">
                    <g id="Diving" transform="translate(76.000000, 0.000000)">
                        <g>
                            <rect id="Rectangle-3" x="0" y="0" width="48" height="48"></rect>
                            <g transform="translate(3.333333, 5.666667)">
                                <rect id="Rectangle-path" fill="#FFFFFF" fill-rule="nonzero" x="36.526864" y="13.9368802" width="3.9080159" height="2.02138754"></rect>
                                <path d="M30.4627014,32.8031639 L30.4627014,30.7817764 C35.4487907,30.7817764 39.3568066,26.7390013 39.3568066,21.8876712 L39.3568066,1.67379585 C39.3451081,1.27805048 39.6866879,1.0801778 40.3815459,1.0801778 C41.0764039,1.0801778 41.40862,1.27805048 41.3781941,1.67379585 L41.3781941,21.8876712 C41.5129533,27.9518338 36.526864,32.8031639 30.4627014,32.8031639 Z" id="Shape" fill="#FFFFFF" fill-rule="nonzero"></path>
                                <path d="M39.1666667,1 L41.4666667,1" id="Line" stroke="#FFFFFF" stroke-width="2" stroke-linecap="round"></path>
                                <path d="M10.5183444,25.6609279 C7.68840182,25.6609279 4.99321844,24.4480954 3.10659007,22.4267079 C1.2199617,20.4053204 0.141888348,17.5753778 0.411406686,14.7454352 C0.815684194,9.35506849 5.39749594,5.17753424 10.9226219,5.17753424 L27.3632405,5.17753424 C30.1931831,5.17753424 33.0231256,6.39036676 34.909754,8.54651347 C36.7963823,10.7026602 37.7396965,13.6673619 37.4701782,16.4973044 C36.9311415,21.0791162 33.292644,24.8523729 28.8455914,25.3914096 C26.5546855,25.6609279 24.1290205,25.2566504 22.2423921,24.0438179 C20.3557637,22.8309854 17.7953395,22.9657446 15.6391928,24.1785771 C14.0220828,25.1218913 12.2702136,25.6609279 10.5183444,25.6609279 Z" id="Shape" fill="#FFFFFF" fill-rule="nonzero"></path>
                                <path d="M25.6113713,35.3635881 C23.7247429,35.3635881 22.2423921,33.7464781 22.2423921,31.7250906 C22.2423921,29.703703 23.7247429,28.086593 25.6113713,28.086593 C27.0937222,28.086593 31.4060156,29.2994255 31.4060156,31.7250906 C31.5407748,34.1507556 27.0937222,35.3635881 25.6113713,35.3635881 Z" id="Shape" fill="#FFFFFF" fill-rule="nonzero"></path>
                            </g>
                        </g>
                    </g>
                </g>
            </g>
        </g>
    </g>
</svg>