<?xml version="1.0" encoding="UTF-8"?>
<svg width="13px" height="35px" viewBox="0 0 13 35" version="1.1" xmlns="http://www.w3.org/2000/svg" xmlns:xlink="http://www.w3.org/1999/xlink">
    <!-- Generator: Sketch 45.2 (43514) - http://www.bohemiancoding.com/sketch -->
    <title>Man</title>
    <desc>Created with Sketch.</desc>
    <defs></defs>
    <g id="Symbols" stroke="none" stroke-width="1" fill="none" fill-rule="evenodd">
        <g id="gender" transform="translate(-125.000000, -7.000000)">
            <g id="Group-22">
                <g id="Group-19" transform="translate(113.000000, 6.000000)">
                    <g id="Man">
                        <rect id="Rectangle" x="0" y="0" width="36" height="36"></rect>
                        <g stroke-width="1" fill-rule="evenodd" transform="translate(12.000000, 1.000000)" id="Shape" fill="#9B9B9B">
                            <path d="M3.05065628,9.17286375 L9.55245454,9.17286375 C11.1864835,9.17478275 12.5106472,10.4989464 12.5125662,12.1329754 L12.5125662,19.8327483 C12.5163094,20.3892299 12.2428744,20.911085 11.783202,21.224752 C11.3235296,21.5384191 10.7379023,21.602763 10.2210915,21.3963838 L9.56986696,33.0836012 C9.53490075,33.6346086 9.07723626,34.0632877 8.52512166,34.0621793 L4.07102419,34.0621793 C3.51890959,34.0632877 3.06124511,33.6346086 3.02627889,33.0836012 L2.38201929,21.3963838 C1.86520848,21.602763 1.27958126,21.5384191 0.819908822,21.224752 C0.360236381,20.911085 0.086801465,20.3892299 0.0905445928,19.8327483 L0.0905445928,12.1329754 C0.0924635954,10.4989464 1.41662727,9.17478275 3.05065628,9.17286375 Z M6.29981417,0.0766146554 C4.27885615,0.0785375469 2.64192473,1.71806662 2.64320635,3.73902514 C2.64448797,5.75998367 4.28349755,7.39743525 6.30445638,7.39679489 C8.32541521,7.39615454 9.96338678,5.75766463 9.96338769,3.73670569 C9.96338813,2.76538552 9.5772945,1.83389889 8.89014089,1.14739848 C8.20298729,0.460898065 7.27113391,0.0756904688 6.29981417,0.0766146554 Z" fill-rule="nonzero"></path>
                        </g>
                    </g>
                </g>
            </g>
        </g>
    </g>
</svg>