<?xml version="1.0" encoding="UTF-8"?>
<svg width="39px" height="34px" viewBox="0 0 39 34" version="1.1" xmlns="http://www.w3.org/2000/svg" xmlns:xlink="http://www.w3.org/1999/xlink">
    <!-- Generator: Sketch 46.1 (44463) - http://www.bohemiancoding.com/sketch -->
    <title>Parachute</title>
    <desc>Created with Sketch.</desc>
    <defs></defs>
    <g id="SPAJ-BAHASA---&gt;-ALLOWED-TO-EDIT" stroke="none" stroke-width="1" fill="none" fill-rule="evenodd">
        <g id="4_Risk-Hobby-If-Yes" transform="translate(-197.000000, -807.000000)">
            <g id="parachute" transform="translate(67.000000, 749.000000)">
                <g id="Parachute" transform="translate(125.000000, 50.000000)">
                    <g>
                        <rect id="Rectangle-3" x="0" y="0" width="48" height="48"></rect>
                        <g transform="translate(5.333333, 8.000000)" id="Shape" fill="#FFFFFF">
                            <path d="M7.01966199,10.3162372 C3.37166568,10.3162372 0.268268609,12.3174081 0.00507549676,14.9566704 C-0.0240687149,15.1981226 0.119157583,15.4328462 0.379801061,15.5707821 C0.64044454,15.7087179 0.978027491,15.7284447 1.26302547,15.6223936 C1.54802345,15.5163425 1.73617651,15.3009831 1.75529375,15.058945 C1.94348799,13.1718006 4.20339658,11.660245 7.02137618,11.6593049 C9.83935682,11.6593049 12.1001287,13.1692487 12.2908869,15.056326 C12.3121232,15.2973026 12.5008389,15.5109964 12.7851244,15.6159803 C13.0694099,15.7209642 13.4054785,15.701068 13.6652726,15.5638732 C13.9250667,15.4266783 14.0685717,15.1933161 14.0411056,14.9527083 C13.7743291,12.3136475 10.6676583,10.3150284 7.01966199,10.3162372 L7.01966199,10.3162372 Z" fill-rule="nonzero"></path>
                            <path d="M19.3071884,10.3162372 C15.6591916,10.3162372 12.5557947,12.3174081 12.2926011,14.9566704 C12.2634621,15.1981204 12.40669,15.4328402 12.6673317,15.5707736 C12.9279734,15.708707 13.2655524,15.7284335 13.5505482,15.6223846 C13.8355439,15.5163357 14.0236978,15.3009804 14.0428198,15.058945 C14.2310141,13.1718006 16.4909223,11.660245 19.3089018,11.6593049 C22.126882,11.6593049 24.387654,13.1692487 24.578413,15.056326 C24.5996493,15.2973026 24.788365,15.5109964 25.0726505,15.6159803 C25.356936,15.7209642 25.6930046,15.701068 25.9527987,15.5638732 C26.2125928,15.4266783 26.3560978,15.1933161 26.3286317,14.9527083 C26.0618552,12.3136475 22.9551844,10.3150284 19.3071884,10.3162372 L19.3071884,10.3162372 Z" fill-rule="nonzero"></path>
                            <path d="M31.5947137,10.3162372 C27.9467177,10.3162372 24.8433208,12.3174081 24.5801272,14.9566704 C24.5509777,15.1981247 24.6942024,15.4328522 24.9548477,15.5707906 C25.2154929,15.7087289 25.5530798,15.7284559 25.83808,15.6224026 C26.1230802,15.5163492 26.3112325,15.3009859 26.330345,15.058945 C26.5185393,13.1718006 28.7784476,11.660245 31.5964279,11.6593049 C34.4144081,11.6593049 36.6751801,13.1692487 36.8659382,15.056326 C36.8871746,15.2973026 37.0758902,15.5109964 37.3601757,15.6159803 C37.6444612,15.7209642 37.9805298,15.701068 38.2403239,15.5638732 C38.500118,15.4266783 38.643623,15.1933161 38.6161569,14.9527083 C38.3493804,12.3136475 35.2427096,10.3150284 31.5947137,10.3162372 L31.5947137,10.3162372 Z" fill-rule="nonzero"></path>
                            <path d="M19.302045,0.243229558 C9.11700127,0.249944896 0.709764064,6.70734718 0.00507549676,14.9645273 C-0.0295451895,15.2097788 0.11434168,15.4498131 0.379855244,15.5897408 C0.645368808,15.7296685 0.98977034,15.7469658 1.27691222,15.634795 C1.56405409,15.5226241 1.74771615,15.2990408 1.75529375,15.0524311 C2.08601896,11.1771423 5.73838566,10.5319951 12.7123939,13.1169894 C15.2799776,11.7296715 17.2897912,11.0357269 18.7418346,11.0351555 C20.4491947,11.0339113 22.6826803,11.5886674 25.4422915,12.6994239 C32.7399281,10.5943419 36.5472389,11.373865 36.864224,15.0379931 C36.8965437,15.4080637 37.3147678,15.6880527 37.7984515,15.6634314 C38.2821353,15.6388102 38.6481961,15.3188983 38.6161569,14.9488134 C37.9018702,6.69210336 29.4870896,0.239267508 19.302045,0.243229558 Z" fill-rule="nonzero"></path>
                            <path d="M12,26.0606061 C12.0000458,25.6589611 12.3714567,25.3333736 12.8296294,25.3333333 L26.1037029,25.3333333 C26.5618759,25.3333732 26.9332873,25.6589608 26.9333331,26.0606061 L26.9333331,32.6060606 C26.9332873,33.0077058 26.5618759,33.3332935 26.1037029,33.3333333 L12.8296294,33.3333333 C12.3714567,33.3332931 12.0000458,33.0077055 12,32.6060606 L12,26.0606061 Z" fill-rule="nonzero"></path>
                            <path d="M0.882755945,14.3454403 C0.540896226,14.3441118 0.229129798,14.4947673 0.0837970397,14.7315226 C-0.0615357184,14.9682779 -0.0139909582,15.2480545 0.205639247,15.4485018 L11.6000572,26.1786053 C11.7978346,26.3649547 12.1105436,26.4563954 12.4203465,26.4184699 C12.7301493,26.3805444 12.9899591,26.219017 13.1018722,25.9947559 C13.2137852,25.7704947 13.1607918,25.5175853 12.9628614,25.331331 L1.56844374,14.6012275 C1.40278192,14.4404587 1.15032581,14.3462831 0.882755945,14.3454403 L0.882755945,14.3454403 Z"></path>
                            <path d="M37.7127631,14.3467833 C37.4545524,14.3531551 37.2131223,14.4462352 37.0527887,14.6012275 L25.6583714,25.331331 C25.4604409,25.5175853 25.4074475,25.7704947 25.5193606,25.9947559 C25.6312736,26.219017 25.8910834,26.3805444 26.2008863,26.4184699 C26.5106892,26.4563954 26.8233981,26.3649547 27.0211755,26.1786053 L38.4155929,15.4485018 C38.6373886,15.2452919 38.6824565,14.9613456 38.5306771,14.7234244 C38.3788977,14.4855031 38.0585958,14.3380074 37.7127631,14.3467833 L37.7127631,14.3467833 Z"></path>
                            <path d="M13.1359976,14.5008332 C12.582064,14.5263515 12.1977126,14.9338382 12.3406,15.3441454 L15.8238938,25.9163042 C16.0850836,26.8139434 17.849366,26.4754904 17.5261135,25.5897372 L14.0445339,15.0175785 C13.9467122,14.6989357 13.5629525,14.4806872 13.1359976,14.5008332 L13.1359976,14.5008332 Z"></path>
                            <path d="M25.4800926,14.3467833 C25.063876,14.3376395 24.6965363,14.5534938 24.6006983,14.8635286 L21.0951183,25.5897372 C21.0187639,25.8226548 21.1106505,26.0690452 21.3361527,26.2360617 C21.561655,26.4030782 21.8864988,26.465336 22.188274,26.3993746 C22.4900493,26.3334133 22.7228891,26.1492582 22.7990532,25.9163042 L26.302918,15.1900955 C26.3715402,14.991919 26.3180987,14.7806143 26.157806,14.6163306 C25.9975132,14.4520468 25.7479266,14.3527786 25.4800926,14.3467833 L25.4800926,14.3467833 Z"></path>
                        </g>
                    </g>
                </g>
            </g>
        </g>
    </g>
</svg>