<?xml version="1.0" encoding="UTF-8"?>
<svg width="34px" height="32px" viewBox="0 0 34 32" version="1.1" xmlns="http://www.w3.org/2000/svg" xmlns:xlink="http://www.w3.org/1999/xlink">
    <!-- Generator: Sketch 45.2 (43514) - http://www.bohemiancoding.com/sketch -->
    <title>Job</title>
    <desc>Created with Sketch.</desc>
    <defs></defs>
    <g id="SPAJ-BAHASA---&gt;-ALLOWED-TO-EDIT" stroke="none" stroke-width="1" fill="none" fill-rule="evenodd">
        <g id="2-PH---not-filled" transform="translate(-59.000000, -1680.000000)">
            <g id="Occupations" transform="translate(58.000000, 1678.000000)">
                <g id="Occupations-Icons">
                    <g id="Job">
                        <rect id="Rectangle" x="0" y="0" width="36" height="36"></rect>
                        <g stroke-width="1" fill-rule="evenodd" transform="translate(1.000000, 2.000000)" id="Shape" fill="#9B9B9B">
                            <path d="M30.9434374,5.6614796 L23.0970658,5.6614796 L23.0970658,2.51404663 C23.0970658,1.45226201 22.2866424,0.618002671 21.2551945,0.618002671 L12.6352369,0.618002671 C11.603789,0.618002671 10.7933657,1.45226201 10.7933657,2.51404663 L10.7933657,5.6614796 L2.94699404,5.6614796 C1.32614732,5.6614796 0,7.02663125 0,8.69514993 L0,28.4140071 C0,30.0825258 1.32614732,31.4476774 2.94699404,31.4476774 L30.9434374,31.4476774 C32.5642841,31.4476774 33.8904314,30.0825258 33.8904314,28.4140071 L33.8904314,8.69514993 C33.8904314,7.02663125 32.5642841,5.6614796 30.9434374,5.6614796 Z M12.2668627,2.51404663 C12.2668627,2.28652135 12.4142124,2.13483784 12.6352369,2.13483784 L21.2920319,2.13483784 C21.5130565,2.13483784 21.6604062,2.28652135 21.6604062,2.51404663 L21.6604062,5.6614796 L12.2668627,5.6614796 L12.2668627,2.51404663 Z M2.94699404,7.17831477 L30.9434374,7.17831477 C31.7538608,7.17831477 32.4169344,7.86089059 32.4169344,8.69514993 L32.4169344,14.7624906 L1.47349702,14.7624906 L1.47349702,8.69514993 C1.47349702,7.86089059 2.13657068,7.17831477 2.94699404,7.17831477 Z M23.3180903,16.2793258 L26.0808972,16.2793258 L26.0808972,18.099528 C26.0808972,18.3270532 25.9335475,18.4787368 25.712523,18.4787368 L23.6864646,18.4787368 C23.46544,18.4787368 23.3180903,18.3270532 23.3180903,18.099528 L23.3180903,16.2793258 Z M7.84637163,16.2793258 L10.6091785,16.2793258 L10.6091785,18.099528 C10.6091785,18.3270532 10.4618288,18.4787368 10.2408043,18.4787368 L8.21474588,18.4787368 C7.99372133,18.4787368 7.84637163,18.3270532 7.84637163,18.099528 L7.84637163,16.2793258 L7.84637163,16.2793258 Z M30.9434374,29.9308423 L2.94699404,29.9308423 C2.13657068,29.9308423 1.47349702,29.2482664 1.47349702,28.4140071 L1.47349702,16.2793258 L6.37287461,16.2793258 L6.37287461,18.099528 C6.37287461,19.1613126 7.18329797,19.9955719 8.21474588,19.9955719 L10.2408043,19.9955719 C11.2722522,19.9955719 12.0826756,19.1613126 12.0826756,18.099528 L12.0826756,16.2793258 L21.8445933,16.2793258 L21.8445933,18.099528 C21.8445933,19.1613126 22.6550167,19.9955719 23.6864646,19.9955719 L25.712523,19.9955719 C26.7439709,19.9955719 27.5543943,19.1613126 27.5543943,18.099528 L27.5543943,16.2793258 L32.4169344,16.2793258 L32.4169344,28.4140071 C32.4169344,29.2482664 31.7538608,29.9308423 30.9434374,29.9308423 Z" fill-rule="nonzero"></path>
                        </g>
                    </g>
                </g>
            </g>
        </g>
    </g>
</svg>