<?xml version="1.0" encoding="UTF-8"?>
<svg width="47px" height="29px" viewBox="0 0 47 29" version="1.1" xmlns="http://www.w3.org/2000/svg" xmlns:xlink="http://www.w3.org/1999/xlink">
    <!-- Generator: Sketch 46.1 (44463) - http://www.bohemiancoding.com/sketch -->
    <title>Racing flag</title>
    <desc>Created with Sketch.</desc>
    <defs></defs>
    <g id="SPAJ-BAHASA---&gt;-ALLOWED-TO-EDIT" stroke="none" stroke-width="1" fill="none" fill-rule="evenodd">
        <g id="4_Risk-Hobby-If-Yes" transform="translate(-523.000000, -810.000000)">
            <g id="racing" transform="translate(388.000000, 749.000000)">
                <g id="Group-5" transform="translate(91.000000, 52.000000)">
                    <g id="Racing-flag" transform="translate(44.000000, 0.000000)">
                        <g>
                            <rect id="Rectangle-3" x="0" y="0" width="48" height="48"></rect>
                            <g transform="translate(0.000000, 9.333333)" id="Group" fill-rule="nonzero" fill="#FFFFFF">
                                <g transform="translate(0.000000, 0.331988)">
                                    <path d="M15.0073259,0.195543007 C14.3742829,0.273150179 13.9641605,1.1615467 14.2866518,1.75658707 L14.5118623,2.17934056 C12.6362196,2.63977855 10.398735,2.33236878 8.92664094,3.26885989 C6.42925536,4.81496548 4.26984748,9.35074293 1.3295384,9.00908399 C0.979403087,8.95651307 0.60827096,9.13317219 0.40723223,9.44812926 C0.206193499,9.76298224 0.184623006,10.2014549 0.353626226,10.5377006 L5.87879192,21.514051 C6.05326668,21.8570632 6.41871779,22.0747901 6.77963378,22.0506908 C10.6742536,21.4753775 12.3279376,17.7166087 15.3676624,15.6274611 C17.3187617,14.893342 19.4393154,15.8432621 21.2231369,15.1883638 L22.4242595,17.5137682 L17.6497961,26.7501668 C17.4020302,27.2270007 17.5772329,27.9050094 18.0175275,28.1732772 C18.4578217,28.441493 19.0837903,28.2515611 19.3313683,27.7746752 L23.5352973,19.6440356 L27.7392301,27.7746752 C27.9868091,28.2515611 28.6127738,28.441493 29.0530675,28.1732772 C29.4933612,27.9050094 29.6685677,27.2270007 29.4208013,26.7501668 L24.6313205,17.4975285 L25.8324455,15.1883638 C27.6679098,16.1234495 30.0382666,14.5954575 31.7179496,15.6274611 C34.5487075,17.7537727 37.037475,21.7719087 40.3059753,22.0506908 C40.6668961,22.074634 41.0323429,21.8570632 41.2068191,21.514051 L46.7319837,10.5377006 C46.9009859,10.2014549 46.8794131,9.76298224 46.6783734,9.44812926 C46.4773418,9.13317219 46.1062063,8.95651307 45.756072,9.00908399 C42.2928775,8.77032873 40.709057,5.01353782 38.1589677,3.26885989 C36.3800878,2.10808354 34.3688645,2.73513491 32.5737497,2.16310083 L32.7839437,1.75658707 C32.9625952,1.42627512 32.9537738,0.987438054 32.7620345,0.665818526 C32.5702856,0.344251049 32.2045409,0.155047783 31.8530853,0.195543007 C31.5425269,0.227814266 31.2520855,0.435599531 31.1023821,0.732130758 L23.5353069,15.3672611 L15.9682336,0.732130758 C15.7856337,0.367829888 15.387251,0.145366405 15.0073355,0.195543007 L15.0073259,0.195543007 Z" id="Shape"></path>
                                </g>
                            </g>
                        </g>
                    </g>
                </g>
            </g>
        </g>
    </g>
</svg>