<?xml version="1.0" encoding="UTF-8"?>
<svg width="34px" height="36px" viewBox="0 0 34 36" version="1.1" xmlns="http://www.w3.org/2000/svg" xmlns:xlink="http://www.w3.org/1999/xlink">
    <!-- Generator: Sketch 45.2 (43514) - http://www.bohemiancoding.com/sketch -->
    <title>home</title>
    <desc>Created with Sketch.</desc>
    <defs></defs>
    <g id="SPAJ-BAHASA---&gt;-ALLOWED-TO-EDIT" stroke="none" stroke-width="1" fill="none" fill-rule="evenodd">
        <g id="2-PH---not-filled" transform="translate(-64.000000, -2326.000000)" fill="#9B9B9B">
            <g id="Residence" transform="translate(63.000000, 2326.000000)">
                <g id="Residence-Icon">
                    <g id="home">
                        <g id="noun_1095757_cc" transform="translate(1.000000, 0.000000)">
                            <path d="M32.8680326,14.4387557 L19.7342784,1.14492573 C18.2261741,-0.381641911 15.7724055,-0.381641911 14.2650095,1.14492573 L1.13125534,14.4387557 C0.400933328,15.1787359 0,16.161791 0,17.2079451 C0,18.2533823 0.400933328,19.2364373 1.13196371,19.9757005 C1.27009445,20.1155223 1.45710222,20.1943962 1.65190198,20.1943962 L3.649485,20.1943962 L3.649485,31.5314375 C3.649485,33.99517 5.62935894,36 8.06400178,36 L12.4749768,36 C12.5415629,36 12.6053155,35.9899615 12.6662347,35.9734697 C12.7094448,35.9806401 12.7519466,35.9863763 12.7965735,35.9863763 C13.201757,35.9863763 13.5311456,35.651521 13.5311456,35.2413769 L13.5311456,24.7984783 C13.5311456,24.3768617 13.8704514,24.035553 14.2848436,24.035553 L19.7151526,24.035553 C20.1302532,24.035553 20.4688506,24.3775787 20.4688506,24.7984783 L20.4688506,35.2399428 C20.4688506,35.6500869 20.7982393,35.9849423 21.2048395,35.9849423 C21.2530082,35.9849423 21.3018852,35.979206 21.3486372,35.9698845 C21.4123898,35.9878104 21.4803927,35.999283 21.5491038,35.999283 L25.9345778,35.999283 C28.369929,35.999283 30.3490946,33.9937359 30.3490946,31.5307205 L30.3490946,20.1936791 L32.3466776,20.1936791 C32.5414773,20.1936791 32.7284851,20.1155223 32.8666158,19.9749834 C33.5969379,19.2357203 33.9999963,18.2526652 33.9999963,17.2072281 C34.001413,16.161791 33.5990629,15.1787359 32.8680326,14.4387557 L32.8680326,14.4387557 Z M32.0187056,18.7051144 L29.613814,18.7051144 C29.2086305,18.7051144 28.8778251,19.0385357 28.8778251,19.4493967 L28.8778251,31.5307205 C28.8778251,33.1734478 27.5581452,34.5092841 25.9352861,34.5092841 L21.9394117,34.5092841 L21.9394117,24.7984783 C21.9394117,23.5565736 20.942037,22.5448371 19.7144443,22.5448371 L14.2841353,22.5448371 C13.057251,22.5448371 12.0591678,23.5558565 12.0591678,24.7984783 L12.0591678,34.5092841 L8.06329342,34.5092841 C6.44043431,34.5092841 5.12075447,33.1734478 5.12075447,31.5307205 L5.12075447,19.4493967 C5.12075447,19.0385357 4.79136578,18.7051144 4.38476555,18.7051144 L1.97987394,18.7051144 C1.64906853,18.2799126 1.46914439,17.757911 1.46914439,17.2079451 C1.46914439,16.5597455 1.71848808,15.9502657 2.17042353,15.4920802 L15.3041777,2.19896727 C16.2377998,1.25319803 17.7586547,1.25319803 18.6922768,2.19896727 L31.8260309,15.4920802 C32.2786747,15.9502657 32.5273101,16.5590284 32.5273101,17.2079451 C32.5294352,17.757911 32.349511,18.2791955 32.0187056,18.7051144 L32.0187056,18.7051144 Z" id="Shape" fill-rule="nonzero"></path>
                        </g>
                    </g>
                </g>
            </g>
        </g>
    </g>
</svg>