<?xml version="1.0" encoding="UTF-8"?>
<svg width="14px" height="35px" viewBox="0 0 14 35" version="1.1" xmlns="http://www.w3.org/2000/svg" xmlns:xlink="http://www.w3.org/1999/xlink">
    <!-- Generator: Sketch 45.2 (43514) - http://www.bohemiancoding.com/sketch -->
    <title>Woman</title>
    <desc>Created with Sketch.</desc>
    <defs></defs>
    <g id="Symbols" stroke="none" stroke-width="1" fill="none" fill-rule="evenodd">
        <g id="gender" transform="translate(-438.000000, -7.000000)">
            <g id="Group-22">
                <g id="Group-23-Copy" transform="translate(427.000000, 6.000000)">
                    <g id="Woman">
                        <rect id="Rectangle" x="0" y="0" width="36" height="36"></rect>
                        <g stroke-width="1" fill-rule="evenodd" transform="translate(11.000000, 1.000000)" id="Shape" fill="#9B9B9B">
                            <path d="M1.36767639,21.2779793 L1.89701401,21.4033487 L0.949778269,27.4628715 C0.90709658,27.6665551 0.957730702,27.8786534 1.08781661,28.0410923 C1.21790251,28.2035312 1.4138099,28.2992904 1.62189775,28.3021502 L4.08401417,28.3021502 L4.39395528,33.2612079 C4.41803458,33.70696 4.78683253,34.0558642 5.233234,34.0552143 L8.43015463,34.0552143 C8.8765561,34.0558642 9.24535405,33.70696 9.26943335,33.2612079 L9.57937446,28.3021502 L12.0414909,28.3021502 C12.2495787,28.2992904 12.4454861,28.2035312 12.575572,28.0410923 C12.7056579,27.8786534 12.7562921,27.6665551 12.7136104,27.4628715 L11.7663746,21.4033487 L12.2957122,21.2779793 C13.1230588,21.0722723 13.6277984,20.2357131 13.4240372,19.4078852 L11.4250912,11.5757779 C11.0801205,10.1652643 9.81607336,9.17300886 8.36398742,9.17286375 L5.29940121,9.17286375 C3.84731527,9.17300886 2.58326816,10.1652643 2.23829747,11.5757779 L0.242833948,19.4078852 C0.0388581006,20.2346404 0.541742143,21.0707045 1.36767639,21.2779793 Z M6.83169432,0.0766146554 C4.81028185,0.0766146554 3.17160328,1.71529323 3.17160328,3.73670569 C3.17160328,5.75811816 4.81028185,7.39679673 6.83169432,7.39679673 C8.85310678,7.39679673 10.4917854,5.75811816 10.4917854,3.73670569 C10.4917854,2.7659892 10.1061697,1.83503072 9.41976951,1.1486305 C8.73336929,0.462230283 7.80241081,0.0766146554 6.83169432,0.0766146554 L6.83169432,0.0766146554 Z" fill-rule="nonzero"></path>
                        </g>
                    </g>
                </g>
            </g>
        </g>
    </g>
</svg>